<?xml version="1.0" encoding="UTF-8" standalone="no"?>
<!-- Created with Inkscape (http://www.inkscape.org/) -->

<svg
   width="38.150539mm"
   height="45.840096mm"
   viewBox="0 0 38.150539 45.840096"
   version="1.1"
   id="svg840"
   inkscape:version="1.1 (c68e22c387, 2021-05-23)"
   sodipodi:docname="phone.svg"
   xmlns:inkscape="http://www.inkscape.org/namespaces/inkscape"
   xmlns:sodipodi="http://sodipodi.sourceforge.net/DTD/sodipodi-0.dtd"
   xmlns="http://www.w3.org/2000/svg"
   xmlns:svg="http://www.w3.org/2000/svg">
  <sodipodi:namedview
     id="namedview842"
     pagecolor="#ffffff"
     bordercolor="#666666"
     borderopacity="1.0"
     inkscape:pageshadow="2"
     inkscape:pageopacity="0.0"
     inkscape:pagecheckerboard="0"
     inkscape:document-units="mm"
     showgrid="false"
     fit-margin-top="0"
     fit-margin-left="0"
     fit-margin-right="0"
     fit-margin-bottom="0"
     inkscape:zoom="1.0230034"
     inkscape:cx="59.139591"
     inkscape:cy="262.46248"
     inkscape:window-width="1920"
     inkscape:window-height="1001"
     inkscape:window-x="-9"
     inkscape:window-y="-9"
     inkscape:window-maximized="1"
     inkscape:current-layer="layer1" />
  <defs
     id="defs837" />
  <g
     inkscape:label="Warstwa 1"
     inkscape:groupmode="layer"
     id="layer1"
     transform="translate(-90.288025,-113.87552)">
    <g
       id="g25756"
       transform="rotate(6.4309228,-407.40311,711.26286)"
       inkscape:export-filename="A:\Olcza\Desktop\Programowanie\CVinHTML+CSS\phone.png"
       inkscape:export-xdpi="600"
       inkscape:export-ydpi="600">
      <g
         id="g25749">
        <path
           style="color:#000000;fill:#707b7c;stroke-width:1.00978;-inkscape-stroke:none"
           d="m 29.417663,68.338298 c -0.664579,-0.05173 -1.407021,0.131866 -2.093292,0.58264 -0.602513,0.396884 -1.906628,1.37198 -3.122129,2.47103 -0.607745,0.54953 -1.186244,1.121634 -1.635642,1.684069 -0.449403,0.562435 -0.843768,1.076586 -0.81867,1.821353 0.02304,0.671096 0.0966,2.656206 1.610225,5.692332 1.51361,3.036125 4.452947,7.202559 10.186802,12.604202 5.735537,5.402749 10.159944,8.172476 13.383398,9.598316 3.223563,1.42593 5.33201,1.49478 6.044265,1.51654 0.790681,0.0231 1.335463,-0.34927 1.932235,-0.77265 0.596883,-0.42329 1.204937,-0.96789 1.788214,-1.54042 1.166001,-1.14423 2.198377,-2.369481 2.620487,-2.938691 0.958043,-1.285539 0.799309,-2.807335 -0.269571,-3.513433 -0.671437,-0.442555 -6.845786,-4.312907 -7.771419,-4.846259 -0.94322,-0.5434 -2.028692,-0.298386 -2.996691,0.18353 -0.766014,0.37978 -2.828444,1.495248 -3.4188,1.81336 -0.443016,-0.265293 -2.128247,-1.320199 -5.754341,-4.734538 -3.624988,-3.41314 -4.742649,-5.000292 -5.023945,-5.417774 0.337267,-0.554369 1.518422,-2.491066 1.923829,-3.219655 v -0.0016 c 0.509053,-0.908399 0.791787,-1.93967 0.188157,-2.834966 -0.25696,-0.38143 -1.411789,-2.035735 -2.57978,-3.70017 -1.16797,-1.664435 -2.275731,-3.240423 -2.564471,-3.617154 v -0.0016 c -0.376945,-0.490777 -0.964293,-0.776736 -1.628861,-0.828467 z m -0.157639,1.671296 c 0.236884,0.02776 0.379988,0.11693 0.379678,0.116534 0.139719,0.182377 1.356237,1.898258 2.522116,3.559688 1.166222,1.661946 2.354567,3.367078 2.562745,3.676221 0.03307,0.04905 0.08152,0.59079 -0.257624,1.195581 v 0.0017 l -0.0017,0.0016 c -0.382288,0.687384 -2.166177,3.626721 -2.166177,3.626721 l -0.24915,0.410292 0.254239,0.408633 c 0,0 1.332687,2.117923 5.571372,6.108939 4.239236,3.991568 6.486616,5.250099 6.486616,5.250099 l 0.433946,0.239483 0.437264,-0.23469 c 0,0 3.11693,-1.679331 3.850976,-2.043257 h 0.0017 c 0.637479,-0.317283 1.214561,-0.274788 1.281483,-0.236164 0.603299,0.34761 7.268118,4.52068 7.67983,4.791965 0.0125,0.0082 0.375208,0.525241 -0.154199,1.235486 l -0.0017,0.0017 c -0.318794,0.429927 -1.362786,1.676105 -2.451023,2.744005 -0.544009,0.53391 -1.105826,1.0303 -1.579704,1.36638 -0.472993,0.33545 -0.897536,0.44145 -0.832162,0.44376 -0.737033,-0.0224 -2.367619,-0.0375 -5.361213,-1.36159 -2.993593,-1.324163 -7.265794,-3.971474 -12.89536,-9.274392 -5.627697,-5.301628 -8.436895,-9.324722 -9.842633,-12.14441 -1.405738,-2.819788 -1.421987,-4.355273 -1.445803,-5.049055 0.0021,0.06232 0.114499,-0.338954 0.471201,-0.785362 0.356692,-0.446418 0.882338,-0.976783 1.449188,-1.489321 1.133712,-1.025095 2.456566,-2.008727 2.913652,-2.309814 v 0.0016 c 0.375087,-0.246369 0.705529,-0.279959 0.942402,-0.252213 z"
           id="shape0"
           inkscape:export-filename="A:\Olcza\Desktop\Programowanie\CVinHTML+CSS\phone.png"
           inkscape:export-xdpi="600"
           inkscape:export-ydpi="600" />
        <path
           style="fill:#707b7c;fill-opacity:1;stroke:none;stroke-width:1.00195"
           d="M 52.087469,104.22392 C 46.317002,103.57873 38.919273,98.763824 30.687618,90.295554 25.11122,84.558864 21.83581,78.920781 21.803984,75.003826 c -0.0058,-0.713611 0.07573,-0.943565 0.573103,-1.616462 0.951675,-1.287528 4.137821,-4.047336 5.376667,-4.657219 1.026985,-0.505582 2.147951,-0.467506 2.88957,0.09816 0.129241,0.09858 0.418925,0.430011 0.643744,0.736521 0.941962,1.284234 4.861216,6.917761 5.004758,7.193827 0.303639,0.583973 0.24747,1.405324 -0.150754,2.204516 -0.0933,0.187249 -0.605878,1.07387 -1.139053,1.970276 l -0.969409,1.629823 0.308851,0.406918 c 1.554419,2.047986 5.634521,6.033916 8.550296,8.352946 0.77031,0.612659 1.867945,1.397119 1.954876,1.397119 0.02655,0 0.567479,-0.279551 1.202061,-0.621226 1.64865,-0.887674 2.597861,-1.356352 3.070164,-1.515917 0.544594,-0.183986 1.317217,-0.191053 1.769155,-0.01619 0.561514,0.21727 7.991591,4.86034 8.395022,5.246066 0.772181,0.738296 0.820301,1.941726 0.120761,3.020171 -0.427593,0.659196 -1.28134,1.630785 -2.530027,2.879245 -1.271546,1.27132 -2.073498,1.92416 -2.822078,2.29735 -0.527105,0.26278 -1.034568,0.31811 -1.964222,0.21417 z m 1.426787,-1.7495 c 0.785236,-0.41853 2.493992,-2.03262 3.844536,-3.631565 0.68857,-0.81521 0.899258,-1.227071 0.8377,-1.637564 -0.04191,-0.279466 -0.06482,-0.304766 -0.572463,-0.632042 -1.652937,-1.065652 -7.125795,-4.453562 -7.282651,-4.508243 -0.326631,-0.113864 -0.876287,0.0351 -1.716413,0.465161 -0.426746,0.218453 -1.458169,0.762846 -2.292053,1.209759 l -1.516153,0.81257 -0.402254,-0.214921 c -0.76577,-0.409143 -2.609043,-1.799606 -4.209986,-3.175778 -3.169251,-2.72429 -7.048598,-6.778236 -7.937064,-8.294285 L 32.10435,82.589194 33.209862,80.75243 c 1.387557,-2.30538 1.490188,-2.506768 1.52995,-3.002086 l 0.03139,-0.391057 -1.432296,-2.053461 C 32.551139,74.176421 31.480177,72.649894 30.95899,71.913543 30.437801,71.177189 29.936823,70.466158 29.845706,70.33347 29.730599,70.165851 29.602498,70.0704 29.425997,70.020735 28.858974,69.86118 28.468796,70.04595 27.075468,71.1338 c -1.731857,1.352163 -3.059703,2.647159 -3.433591,3.348643 l -0.212161,0.398058 0.07392,0.686572 c 0.430102,3.994754 3.811821,9.174091 9.935313,15.216627 6.098117,6.017495 11.882255,10.02523 16.446857,11.39575 1.098844,0.32993 1.898092,0.47248 2.738935,0.48851 0.455835,0.009 0.547518,-0.0113 0.889516,-0.19354 z"
           id="path22645"
           inkscape:export-filename="A:\Olcza\Desktop\Programowanie\CVinHTML+CSS\phone.png"
           inkscape:export-xdpi="600"
           inkscape:export-ydpi="600" />
        <path
           style="fill:#707b7c;fill-opacity:1;stroke:#707b7c;stroke-width:1.00291;stroke-opacity:1"
           d="m 51.458569,102.48643 c -4.944042,-0.8853 -11.667513,-5.355265 -18.6769,-12.416965 -5.62532,-5.667303 -8.84688,-10.707076 -9.275494,-14.51048 l -0.07646,-0.678484 0.21358,-0.377886 c 0.260661,-0.461185 1.81575,-2.033078 2.749799,-2.779514 1.654262,-1.321988 2.250515,-1.703862 2.655514,-1.700742 0.482251,0.0037 0.353357,-0.159139 3.969847,5.015746 1.809908,2.589822 1.770879,2.507974 1.514615,3.17647 -0.06491,0.169339 -0.666725,1.221628 -1.337355,2.338421 l -1.219327,2.030532 0.114264,0.211859 c 0.190584,0.353364 0.978281,1.368964 1.770204,2.282362 2.927049,3.376043 8.194318,8.049911 10.549932,9.361392 l 0.376605,0.209675 1.133454,-0.615523 c 3.350605,-1.81955 3.99347,-2.088968 4.457412,-1.868059 0.257953,0.122825 7.19079,4.435376 7.503284,4.667392 0.242154,0.179791 0.314323,0.435279 0.220858,0.781866 -0.09691,0.359361 -1.014034,1.472925 -2.27195,2.758588 -1.138479,1.16359 -1.905448,1.82146 -2.42535,2.08037 -0.394689,0.19655 -0.977873,0.20644 -1.946533,0.033 z"
           id="path22684"
           inkscape:export-filename="A:\Olcza\Desktop\Programowanie\CVinHTML+CSS\phone.png"
           inkscape:export-xdpi="600"
           inkscape:export-ydpi="600" />
      </g>
      <rect
         style="fill:none;fill-opacity:1;stroke:none;stroke-width:4.22058;stroke-opacity:1"
         id="rect25614"
         width="36.53849"
         height="16.035301"
         x="22.07621"
         y="61.684177"
         inkscape:export-filename="A:\Olcza\Desktop\Programowanie\CVinHTML+CSS\phone.png"
         inkscape:export-xdpi="600"
         inkscape:export-ydpi="600" />
    </g>
  </g>
</svg>
